#!OML:ASF F:\VICON\USERDATA\INSTALL\rory3\rory3.ASF
:FULLY-SPECIFIED
:DEGREES
361
root -6.85304 16.5666 -1.67885 57.5658 -32.5528 -42.0044
lowerback 4.88332 -0.203742 -2.58413
upperback -4.69486 -1.08784 -6.66233
thorax -7.79866 -0.658545 -5.48726
lowerneck -20.2299 -3.24529 -8.44055
upperneck 14.4033 -5.78524 18.7216
head 8.72462 -1.41909 7.11217
rclavicle -1.90833e-014 4.77083e-014
rhumerus -26.3203 -18.869 -1.48565
rradius 36.4417
rwrist 7.2103
rhand -31.3715 -63.9814
rfingers 7.12502
rthumb -4.64186 -1706.09
lclavicle -1.90833e-014 4.77083e-014
lhumerus -30.752 -4.473 36.1198
lradius 31.3681
lwrist 17.0116
lhand -38.357 326.832
lfingers 7.12502
lthumb -11.3836 -3.49707
rfemur -22.2757 -9.24714 43.5256
rtibia 36.025
rfoot -4.25087 -24.4699
rtoes -5.72223
lfemur -77.2952 25.6264 -13.06
ltibia 51.7638
lfoot -32.0777 40.7877
ltoes 33.7471
362
root -6.82727 16.5666 -1.77273 57.826 -34.3253 -42.6338
lowerback 4.62021 0.0826042 -2.02198
upperback -5.08446 -0.652974 -6.46455
thorax -8.03247 -0.476124 -5.6531
lowerneck -18.9175 -3.42133 -9.34222
upperneck 14.0408 -5.86904 19.1181
head 8.41808 -1.55242 7.37985
rclavicle -3.97569e-014 2.8625e-014
rhumerus -25.6548 -18.1135 -1.32214
rradius 35.8311
rwrist 7.05605
rhand -32.0027 -64.7059
rfingers 7.12502
rthumb -5.25137 -1705.38
lclavicle -3.97569e-014 2.8625e-014
lhumerus -32.3893 -4.9681 37.4246
lradius 31.6129
lwrist 17.0535
lhand -38.8924 326.408
lfingers 7.12502
lthumb -11.8999 -3.94998
rfemur -22.0355 -9.12109 43.1955
rtibia 35.6721
rfoot -4.78344 -24.7232
rtoes -2.17527
lfemur -76.6956 26.2792 -13.1742
ltibia 51.7812
lfoot -31.7307 41.6965
ltoes 33.6894
363
root -6.78807 16.5696 -1.8486 57.4872 -36.226 -42.4053
lowerback 4.5009 -0.163936 -1.7112
upperback -4.87104 -0.95413 -6.63255
thorax -7.76729 -0.646388 -5.96998
lowerneck -19.4087 -3.31444 -9.02373
upperneck 13.8952 -5.77847 19.1637
head 8.43994 -1.47056 7.35023
rclavicle 2.8625e-014 -1.59028e-014
rhumerus -24.9826 -19.021 -2.31095
rradius 35.7927
rwrist 7.19983
rhand -31.6213 -64.9834
rfingers 7.12502
rthumb -4.88309 -1705.09
lclavicle 2.8625e-014 -1.59028e-014
lhumerus -33.7155 -4.02275 37.7389
lradius 31.9059
lwrist 16.9742
lhand -39.7829 324.177
lfingers 7.12502
lthumb -12.7585 -6.23267
rfemur -21.9831 -9.65206 42.354
rtibia 35.3647
rfoot -3.14389 -24.9225
rtoes -4.282
lfemur -75.8381 26.1469 -13.653
ltibia 51.7197
lfoot -32.3544 42.3718
ltoes 33.9796
364
root -6.75913 16.5762 -1.94854 58.7989 -38.6555 -43.6957
lowerback 3.74686 0.16465 -1.59546
upperback -5.21814 -0.482027 -6.50487
thorax -7.65474 -0.421265 -5.94752
lowerneck -19.0995 -3.20653 -9.11194
upperneck 13.7745 -5.53133 18.8327
head 8.2902 -1.40505 7.2688
rclavicle -2.22639e-014 8.5875e-014
rhumerus -25.6406 -19.4625 -2.66992
rradius 36.9631
rwrist 7.32549
rhand -29.9761 -64.8244
rfingers 7.12502
rthumb -3.29436 -1705.22
lclavicle -2.22639e-014 8.5875e-014
lhumerus -35.2416 -3.43575 38.4746
lradius 32.2308
lwrist 16.7819
lhand -39.1113 325.462
lfingers 7.12502
lthumb -12.1109 -4.90864
rfemur -22.4102 -8.85121 41.8948
rtibia 35.1466
rfoot -0.441678 -24.3548
rtoes -8.39025
lfemur -75.5883 27.2277 -13.8226
ltibia 51.7236
lfoot -34.0584 42.93
ltoes 35.0749
